inDegrees=yes
name=ik_S48_A04_T01
DataType=double
version=3
OpenSimVersion=4.3-2021-08-27-4bc7ad9
endheader
time	pelvis_tilt	pelvis_list	pelvis_rotation	pelvis_tx	pelvis_ty	pelvis_tz	hip_flexion_r	hip_adduction_r	hip_rotation_r	knee_angle_r	knee_angle_r_beta	ankle_angle_r	subtalar_angle_r	mtp_angle_r	hip_flexion_l	hip_adduction_l	hip_rotation_l	knee_angle_l	knee_angle_l_beta	ankle_angle_l	subtalar_angle_l	mtp_angle_l	lumbar_extension	lumbar_bending	lumbar_rotation	arm_flex_r	arm_add_r	arm_rot_r	elbow_flex_r	pro_sup_r	wrist_flex_r	wrist_dev_r	arm_flex_l	arm_add_l	arm_rot_l	elbow_flex_l	pro_sup_l	wrist_flex_l	wrist_dev_l
7.179999999999935	-12.94956788490459	-11.32477472218402	35.05151078879246	0	0.9399999999999999	0	72.91330661838992	-16.74822082358728	-11.74205864277957	78.68772425689531	1.373359869184231	0	0	0	77.5972964672528	-4.935819069128447	-10.11957842382498	78.702783277959	1.37362269868392	0	0	0	0	0	0	18.40007001236296	-18.40007001236296	3.016913689419152	57.56205938919385	86.9830864838239	0	0	18.40007001236296	-18.40007001236296	3.016913689419152	57.56205938919385	86.98308648345449	0	0
7.199999999999934	-14.05429154960249	-11.84639571416224	34.96329827730369	0	0.9399999999999999	0	73.26186703662333	-16.20998557916302	-11.82512944438169	78.06665850098091	1.362520226872138	0	0	0	77.92118128394247	-4.67321118447095	-10.34099710472799	77.99969671975801	1.361351523316798	0	0	0	0	0	0	18.40847134941569	-18.40847134941569	3.018127776500604	57.58036820041161	86.9818723968103	0	0	18.40847134941569	-18.40847134941569	3.018127776500604	57.58036820041161	86.98187239644122	0	0
7.219999999999934	-14.61643206900986	-11.94444887232214	34.92103263423925	0	0.9399999999999999	0	72.79244570798934	-15.79340365388902	-11.80924397655996	77.33213836038827	1.349700431996585	0	0	0	76.43883057839768	-4.441001094454188	-10.68128204328128	76.34736764153274	1.332512940575324	0	0	0	0	0	0	18.60892583874402	-18.60892583874402	3.043021820575116	57.9388514983612	86.95697835409484	0	0	18.60892583874402	-18.60892583874402	3.043021820575116	57.9388514983612	86.95697835373046	0	0
7.239999999999934	-15.27557598157109	-12.14888020281437	34.92983276347027	0	0.9399999999999999	0	72.32553321574838	-15.53265511739273	-11.97182252720546	76.18097729977907	1.329608881268204	0	0	0	75.93418615438428	-4.281678709061241	-11.0829325716405	75.59900117077318	1.31945148164904	0	0	0	0	0	0	18.61566583256899	-18.61566583256899	3.043990919836433	57.9534206960966	86.95600925488768	0	0	18.61566583256899	-18.61566583256899	3.043990919836433	57.9534206960966	86.95600925452341	0	0
7.259999999999933	-15.8992009285013	-12.53489767170699	34.90638259915753	0	0.9399999999999999	0	71.85195156327252	-15.37424973836954	-12.4722265039069	75.34649640752001	1.315044442153303	0	0	0	75.49887108098405	-4.260555415994103	-11.32498738785386	74.7216796504289	1.30413933252043	0	0	0	0	0	0	18.62211526891499	-18.62211526891499	3.044917768764594	57.96735172671477	86.9550824060113	0	0	18.62211526891499	-18.62211526891499	3.044917768764594	57.96735172671477	86.95508240564723	0	0
7.279999999999933	-16.21674619922952	-12.67064641723126	34.93753862093887	0	0.9399999999999999	0	70.91536211655492	-15.29496914340697	-12.95107087052011	74.12714116364165	1.293762678396168	0	0	0	74.66990613409426	-4.285602365454715	-11.67826524450444	73.68569975911223	1.286058072432501	0	0	0	0	0	0	18.62829483874575	-18.62829483874575	3.04580532378117	57.98068918401348	86.95419485104432	0	0	18.62829483874575	-18.62829483874575	3.04580532378117	57.98068918401348	86.95419485068038	0	0
7.299999999999932	-16.30426228290314	-12.67507311273389	34.90304317448953	0	0.9399999999999999	0	69.64564227170992	-15.22700973547487	-13.35054640057595	73.34518359645021	1.280114944237792	0	0	0	73.48337780796616	-4.463884035745785	-12.19404562068155	72.75342950220715	1.269786886931094	0	0	0	0	0	0	18.63623953371762	-18.63623953371762	3.046946739710243	57.99784132568539	86.95305343517902	0	0	18.63623953371762	-18.63623953371762	3.046946739710243	57.99784132568539	86.95305343481526	0	0
7.319999999999932	-16.6396543369705	-12.76120263718407	34.75289258919505	0	0.9399999999999999	0	68.56153434170574	-15.13659482038643	-13.56731556245294	72.17252955896987	1.259648270296955	0	0	0	72.4899521307874	-4.715236173003721	-12.67587119820295	71.64754794968823	1.250485612702572	0	0	0	0	0	0	18.64215614330406	-18.64215614330406	3.047796061312217	58.01060027152462	86.9522041136245	0	0	18.64215614330406	-18.64215614330406	3.047796061312217	58.01060027152462	86.95220411326092	0	0
7.339999999999931	-16.87497437594656	-12.77485289572001	34.59087062140518	0	0.9399999999999999	0	67.39194451712009	-15.05910358387031	-13.79662723805406	71.04316722847086	1.239937179181751	0	0	0	71.3695790807608	-4.992272146165857	-13.21380108966931	70.42770590546155	1.229195352676558	0	0	0	0	0	0	18.64954077034888	-18.64954077034888	3.048856232165666	58.02652592511389	86.9511439428303	0	0	18.64954077034888	-18.64954077034888	3.048856232165666	58.02652592511389	86.95114394246691	0	0
7.359999999999931	-16.59818275241286	-12.35622804747448	34.45378942399279	0	0.9399999999999999	0	66.99349966722504	-14.96722117145234	-13.56354955031392	71.13620600086553	1.241561012092052	0	0	0	70.87839212545983	-5.162881134804055	-13.47088773531674	70.50294672155438	1.230508552649266	0	0	0	0	0	0	18.6511919894701	-18.6511919894701	3.049086461256771	58.02995690591509	86.95091371375203	0	0	18.6511919894701	-18.6511919894701	3.049086461256771	58.02995690591509	86.95091371338866	0	0
7.379999999999931	-16.35481924985927	-12.11791722131426	34.49526759863637	0	0.9399999999999999	0	62.40826456813133	-14.8076614167167	-15.19416338232758	67.31203338611904	1.174816608800125	0	0	0	69.18991149959122	-5.325554095802518	-13.92519232921857	69.26566182954137	1.208913857498456	0	0	0	0	0	0	18.97808404318388	-18.97808404318388	3.089309680502375	58.60737337979275	86.91069049669868	0	0	18.97808404318388	-18.97808404318388	3.089309680502375	58.60737337979275	86.9106904963428	0	0
7.39999999999993	-16.22989985228093	-12.00626025551327	34.4777646753021	0	0.9399999999999999	0	62.23243503428482	-14.79472648702357	-15.19045182497028	67.30707801993681	1.174730121344603	0	0	0	69.0172875095768	-5.3795610067649	-13.96822399263099	69.24331074615327	1.208523757501946	0	0	0	0	0	0	19.02816575653548	-19.02816575653548	3.096300266279527	58.71066245093943	86.90369991130983	0	0	19.02816575653548	-19.02816575653548	3.096300266279527	58.71066245093943	86.90369991095514	0	0
7.41999999999993	-15.95336188728773	-11.7658766366182	34.50717845520244	0	0.9399999999999999	0	60.4257283124169	-14.83759410031305	-15.82855674959142	66.06586028472086	1.153066785130937	0	0	0	66.01648969570867	-5.66727351860607	-14.73044365064688	66.78760520740792	1.165663610391378	0	0	0	0	0	0	19.35181175416901	-19.35181175416901	3.135721402078735	59.2747799457474	86.86427877765516	0	0	19.35181175416901	-19.35181175416901	3.135721402078735	59.2747799457474	86.8642787773079	0	0
7.439999999999929	-15.64227072129984	-11.51388731675656	34.55168313563347	0	0.9399999999999999	0	60.03783116238493	-14.85572563077834	-15.81806876224578	66.02713870223182	1.152390966024921	0	0	0	64.25488203249765	-5.885362422061198	-15.10149497448289	65.48253185880284	1.142885783478192	0	0	0	0	0	0	19.36280184325419	-19.36280184325419	3.137270428539039	59.29781161198702	86.86272975128112	0	0	19.36280184325419	-19.36280184325419	3.137270428539039	59.29781161198702	86.86272975093414	0	0
7.459999999999929	-15.27755646854482	-11.23139427706088	34.6271935559031	0	0.9399999999999999	0	56.60392278222636	-14.84242535042155	-16.76332347481221	63.29593431565944	1.104722456934321	0	0	0	60.98884613241908	-6.424023515020278	-15.6689357234845	62.70646243392199	1.094434231750076	0	0	0	0	0	0	19.64179694902503	-19.64179694902503	3.171056433435732	59.78044961712017	86.82894374822041	0	0	19.64179694902503	-19.64179694902503	3.171056433435732	59.78044961712017	86.82894374787971	0	0
7.479999999999928	-14.85602306187888	-10.99582116905385	34.68688312709775	0	0.9399999999999999	0	56.11422940274912	-14.84705288417106	-16.7978969695851	63.17861056343276	1.102674771167171	0	0	0	59.11335842005192	-6.724589007170022	-15.8771446522924	61.25317885280483	1.069069648294407	0	0	0	0	0	0	19.65238316626514	-19.65238316626514	3.17253734670826	59.80238352032907	86.8274628350302	0	0	19.65238316626514	-19.65238316626514	3.17253734670826	59.80238352032907	86.82746283468981	0	0
7.499999999999928	-14.40258455994115	-10.71172360247156	34.77293413909543	0	0.9399999999999999	0	54.09180088871042	-14.75778067045203	-17.2294803119866	61.82833941482743	1.079108093829323	0	0	0	57.17314606839247	-6.963496645346029	-16.01119327016062	59.86447639016828	1.044832217990846	0	0	0	0	0	0	19.65859627654967	-19.65859627654967	3.173406668838175	59.8152594001951	86.82659351294862	0	0	19.65859627654967	-19.65859627654967	3.173406668838175	59.8152594001951	86.8265935126083	0	0
7.519999999999928	-13.98421803764649	-10.41867762094583	34.84517815669049	0	0.9399999999999999	0	50.59312691351752	-14.80559172723798	-17.87066989367466	58.63664611583287	1.023402537048028	0	0	0	55.2755066263398	-7.251520130253815	-16.10844041058726	58.18906861482276	1.015590835997553	0	0	0	0	0	0	19.97862323648829	-19.97862323648829	3.211774535925016	60.3617931751326	86.78822564794294	0	0	19.97862323648829	-19.97862323648829	3.211774535925016	60.3617931751326	86.78822564760979	0	0
